<svg width="28" height="28" viewBox="0 0 28 28" fill="none" xmlns="http://www.w3.org/2000/svg">
<path d="M12.8 11C12.8 10.6686 12.5314 10.4 12.2 10.4C11.8686 10.4 11.6 10.6686 11.6 11V17C11.6 17.3314 11.8686 17.6 12.2 17.6C12.5314 17.6 12.8 17.3314 12.8 17V11ZM16.4 11C16.4 10.6686 16.1314 10.4 15.8 10.4C15.4686 10.4 15.2 10.6686 15.2 11V17C15.2 17.3314 15.4686 17.6 15.8 17.6C16.1314 17.6 16.4 17.3314 16.4 17V11ZM14 6C9.58172 6 6 9.58172 6 14C6 18.4182 9.58172 22 14 22C18.4182 22 22 18.4182 22 14C22 9.58172 18.4182 6 14 6ZM7.2 14C7.2 10.2445 10.2445 7.2 14 7.2C17.7555 7.2 20.8 10.2445 20.8 14C20.8 17.7555 17.7555 20.8 14 20.8C10.2445 20.8 7.2 17.7555 7.2 14Z" fill="#F2F2F2"></path>
</svg>