<svg width="28" height="28" viewBox="0 0 28 28" fill="none" xmlns="http://www.w3.org/2000/svg">
<path d="M18.9318 7C20.074 7 21 7.92595 21 9.06818V18.9318C21 20.074 20.074 21 18.9318 21H9.06818C7.92595 21 7 20.074 7 18.9318V9.06818C7 7.92595 7.92595 7 9.06818 7H18.9318ZM20.0455 11.1383H7.95455V18.9318C7.95455 19.5469 8.45314 20.0455 9.06818 20.0455H18.9318C19.5469 20.0455 20.0455 19.5469 20.0455 18.9318V11.1383ZM10.6583 16.2282C11.0976 16.2282 11.4538 16.5843 11.4538 17.0236C11.4538 17.463 11.0976 17.8191 10.6583 17.8191C10.219 17.8191 9.86286 17.463 9.86286 17.0236C9.86286 16.5843 10.219 16.2282 10.6583 16.2282ZM14.0021 16.2282C14.4414 16.2282 14.7976 16.5843 14.7976 17.0236C14.7976 17.463 14.4414 17.8191 14.0021 17.8191C13.5628 17.8191 13.2066 17.463 13.2066 17.0236C13.2066 16.5843 13.5628 16.2282 14.0021 16.2282ZM10.6583 13.0463C11.0976 13.0463 11.4538 13.4025 11.4538 13.8418C11.4538 14.2811 11.0976 14.6373 10.6583 14.6373C10.219 14.6373 9.86286 14.2811 9.86286 13.8418C9.86286 13.4025 10.219 13.0463 10.6583 13.0463ZM14.0021 13.0463C14.4414 13.0463 14.7976 13.4025 14.7976 13.8418C14.7976 14.2811 14.4414 14.6373 14.0021 14.6373C13.5628 14.6373 13.2066 14.2811 13.2066 13.8418C13.2066 13.4025 13.5628 13.0463 14.0021 13.0463ZM17.3458 13.0463C17.7852 13.0463 18.1413 13.4025 18.1413 13.8418C18.1413 14.2811 17.7852 14.6373 17.3458 14.6373C16.9065 14.6373 16.5504 14.2811 16.5504 13.8418C16.5504 13.4025 16.9065 13.0463 17.3458 13.0463ZM18.9318 7.95455H9.06818C8.45314 7.95455 7.95455 8.45314 7.95455 9.06818V10.1837H20.0455V9.06818C20.0455 8.45314 19.5469 7.95455 18.9318 7.95455Z" fill="#F2F2F2"></path>
</svg>