<svg width="28" height="28" viewBox="0 0 28 28" fill="none" xmlns="http://www.w3.org/2000/svg">
<path d="M10.779 6.82634C11.0336 6.31974 11.5522 6 12.1192 6H15.8834C16.4517 6 16.9711 6.32102 17.2251 6.82921L17.8101 7.99918H19.5C20.8807 7.99918 22 9.11835 22 10.4989V12.6939C21.6999 12.4351 21.359 12.2487 21 12.1345V10.4989C21 9.67057 20.3284 8.99907 19.5 8.99907H17.501C17.3116 8.99907 17.1385 8.89206 17.0538 8.72266L16.3307 7.27629C16.246 7.1069 16.0728 6.99989 15.8834 6.99989H12.1192C11.9302 6.99989 11.7574 7.10647 11.6725 7.27534L10.9445 8.72362C10.8597 8.89249 10.6868 8.99907 10.4978 8.99907H8.5C7.67157 8.99907 7 9.67057 7 10.4989V18.4986C7 19.3269 7.67157 19.9985 8.5 19.9985H12.2166L12.0533 20.6517C12.0241 20.7685 12.0062 20.8843 11.999 20.9984H8.5C7.11928 20.9984 6 19.8792 6 18.4986V10.4989C6 9.11834 7.11929 7.99918 8.5 7.99918H10.1895L10.779 6.82634ZM17.8832 13.0548C17.4587 11.3017 15.8791 9.99959 13.9953 9.99959C11.7862 9.99959 9.9953 11.7903 9.9953 13.9991C9.9953 15.8885 11.3055 17.4718 13.0669 17.8904C13.1305 17.8136 13.1978 17.7397 13.2687 17.6688L13.9392 16.9983C12.3083 16.9684 10.9953 15.6371 10.9953 13.9991C10.9953 12.3425 12.3384 10.9995 13.9953 10.9995C15.6334 10.9995 16.9649 12.3123 16.9948 13.9431L17.8832 13.0548ZM18.8053 13.5469L13.9758 18.3758C13.6943 18.6574 13.4945 19.0102 13.3979 19.3964L13.0235 20.8942C12.8606 21.5455 13.4507 22.1354 14.1021 21.9727L15.6 21.5982C15.9863 21.5016 16.3391 21.3019 16.6207 21.0204L21.4501 16.1915C22.1804 15.4612 22.1804 14.2772 21.4501 13.5469C20.7198 12.8167 19.5356 12.8167 18.8053 13.5469Z" fill="#F2F2F2"></path>
</svg>