<svg width="28" height="28" viewBox="0 0 28 28" fill="none" xmlns="http://www.w3.org/2000/svg">
<path d="M7 14C7 10.134 10.134 7 14 7C17.866 7 21 10.134 21 14C21 17.866 17.866 21 14 21C10.134 21 7 17.866 7 14ZM14 6C9.58172 6 6 9.58172 6 14C6 18.4183 9.58172 22 14 22C18.4183 22 22 18.4183 22 14C22 9.58172 18.4183 6 14 6ZM13.9954 9.76551C13.9623 9.52155 13.753 9.33333 13.5 9.33333C13.224 9.33333 13 9.55733 13 9.83333V14.5L13.0046 14.5678C13.0377 14.8118 13.247 15 13.5 15H16.8333L16.9011 14.9954C17.1451 14.9623 17.3333 14.753 17.3333 14.5C17.3333 14.224 17.1093 14 16.8333 14H14V9.83333L13.9954 9.76551Z" fill="#F2F2F2"></path>
</svg>