<svg width="28" height="28" viewBox="0 0 28 28" fill="none" xmlns="http://www.w3.org/2000/svg">
<path d="M20.2757 20.7969C20.6756 20.7968 21 21.0654 21 21.3968C21 21.7281 20.676 21.9969 20.2761 21.997L7.72435 22C7.32441 22.0001 7 21.7315 7 21.4001C7 21.0687 7.324 20.8 7.72393 20.7999L20.2757 20.7969ZM13.9017 6.00548L14 6C14.3666 6 14.6696 6.22573 14.7176 6.51861L14.7241 6.60003L14.7232 17.5487L18.3166 14.5722C18.5738 14.3592 18.9761 14.3399 19.2596 14.5142L19.3408 14.5723C19.5978 14.7853 19.6211 15.1187 19.4108 15.3536L19.3407 15.4209L14.5153 19.4184C14.2584 19.6313 13.8563 19.6507 13.5729 19.4767L13.4917 19.4187L8.66072 15.4211C8.37774 15.187 8.37742 14.807 8.66002 14.5725C8.91693 14.3594 9.31921 14.3398 9.60284 14.514L9.68411 14.572L13.2749 17.5431L13.2759 6.60003C13.2759 6.29626 13.5483 6.04521 13.9017 6.00548Z" fill="#F2F2F2"></path>
</svg>