<svg width="28" height="28" viewBox="0 0 28 28" fill="none" xmlns="http://www.w3.org/2000/svg">
<path d="M15.2311 6C16.5478 6 17.6241 6.99943 17.6986 8.25588L17.7027 8.3965L19.5578 8.3973C20.2725 8.3973 20.8658 8.90203 20.9801 9.56451L20.9952 9.68298L21 9.79786L20.9993 12.7996L19.353 12.7996C18.7402 12.7996 18.2271 13.2343 18.1334 13.7911L18.1207 13.8969L18.1168 14C18.1168 14.595 18.5645 15.0933 19.138 15.1843L19.2468 15.1965L19.353 15.2003L20.9993 15.2003L21 18.2023C21 18.937 20.4173 19.5396 19.676 19.598L19.5578 19.6027L17.7027 19.6022L17.6994 19.7403C17.6298 20.9053 16.7047 21.8475 15.5252 21.9832L15.3764 21.9959L15.2311 22C13.9145 22 12.8382 21.0005 12.7629 19.7429L12.7588 19.6022L10.9045 19.6027C10.1898 19.6027 9.59658 19.098 9.48219 18.4357L9.46705 18.3173L9.46227 18.2024L9.46144 16.4005L9.32711 16.3966C8.12732 16.3291 7.15706 15.4309 7.0173 14.2854L7.00419 14.1411L7 14C7 12.7215 8.02927 11.6764 9.32705 11.6034L9.46144 11.599L9.46227 9.79771C9.46227 9.10378 9.98206 8.52773 10.6641 8.41665L10.7861 8.40195L10.9043 8.3973L12.758 8.3965L12.7629 8.25963C12.8325 7.09464 13.7576 6.15251 14.9371 6.0168L15.0859 6.00407L15.2311 6ZM15.2311 7.20035C14.5886 7.20035 14.0605 7.67639 14.0006 8.28558L13.9949 8.40128L13.9938 9.59689L10.9045 9.59765C10.807 9.59765 10.7253 9.66346 10.7039 9.75193L10.6985 9.79786L10.6977 12.7995L9.47238 12.7996C8.78965 12.7996 8.23619 13.3371 8.23619 14C8.23619 14.6239 8.72645 15.1366 9.35328 15.1948L9.47232 15.2003L10.6977 15.2002L10.6985 18.2023C10.6985 18.2969 10.7662 18.3763 10.8572 18.397L10.9044 18.4023L13.9938 18.4019L13.9949 19.5993C13.9949 20.2622 14.5484 20.7997 15.2311 20.7997C15.8737 20.7997 16.4018 20.3236 16.4617 19.7153L16.4673 19.5999L16.4662 18.4019L19.5578 18.4023C19.6554 18.4023 19.737 18.3365 19.7584 18.2482L19.7638 18.2024L19.763 16.3997L19.3322 16.4004L19.1844 16.3952C17.9389 16.3134 16.9558 15.3409 16.8851 14.1216L16.8809 13.9798L16.8863 13.8362C16.9705 12.6268 17.9721 11.6723 19.2092 11.6033L19.353 11.5993L19.763 11.599L19.7638 9.79771C19.7638 9.72195 19.7205 9.65602 19.6565 9.62206L19.605 9.60293L19.5577 9.59765L16.4662 9.59689L16.4673 8.4007C16.4673 7.73776 15.9139 7.20035 15.2311 7.20035Z" fill="#F2F2F2"></path>
</svg>