<svg width="28" height="28" viewBox="0 0 28 28" fill="none" xmlns="http://www.w3.org/2000/svg">
<path d="M13.2181 11.9137V9.02901C13.2181 8.1703 14.0371 7.69111 14.5928 8.22465L19.6213 13.052C20.1262 13.5367 20.1262 14.4647 19.6212 14.9495L14.5928 19.7759C14.037 20.3094 13.2181 19.8302 13.2181 18.9715V16.0864L9.3747 19.7754C8.81892 20.3088 8 19.8296 8 18.971V9.02846C8 8.16975 8.81899 7.69057 9.37475 8.22411L13.2181 11.9137ZM13.2181 14.8771V13.123L8.88845 8.96659C8.87441 8.95311 8.86345 8.94964 8.85501 8.94873C8.84488 8.94763 8.83231 8.9499 8.81954 8.95737C8.80677 8.96484 8.7975 8.97536 8.79191 8.98565C8.78725 8.99422 8.7827 9.00677 8.7827 9.02846V18.971C8.7827 18.9927 8.78725 19.0052 8.79191 19.0138C8.7975 19.0241 8.80677 19.0346 8.81953 19.0421C8.8323 19.0496 8.84487 19.0518 8.855 19.0507C8.86345 19.0498 8.8744 19.0464 8.88844 19.0328L13.2181 14.8771ZM14.1065 8.96713C14.0925 8.95365 14.0815 8.95018 14.0731 8.94927C14.063 8.94818 14.0504 8.95043 14.0376 8.95791C14.0249 8.96538 14.0156 8.9759 14.01 8.98618C14.0054 8.99477 14.0008 9.00731 14.0008 9.02901V18.9715C14.0008 18.9932 14.0054 19.0057 14.01 19.0143C14.0156 19.0246 14.0249 19.0352 14.0376 19.0426C14.0504 19.0501 14.063 19.0524 14.0731 19.0513C14.0815 19.0503 14.0925 19.0469 14.1065 19.0334L19.1349 14.2069C19.2447 14.1016 19.2447 13.8999 19.135 13.7945L14.1065 8.96713Z" fill="#F2F2F2"></path>
</svg>