<svg width="28" height="28" viewBox="0 0 28 28" fill="none" xmlns="http://www.w3.org/2000/svg">
<path d="M13.0143 7.31506C13.5902 6.89498 14.4098 6.89498 14.9857 7.31506L20.4107 11.2724C20.7832 11.5442 21 11.955 21 12.3892V19.5681C21 20.359 20.2948 21 19.425 21H17.325C16.4552 21 15.75 20.359 15.75 19.5681V15.7497C15.75 15.4861 15.5149 15.2724 15.225 15.2724H12.775C12.4851 15.2724 12.25 15.4861 12.25 15.7497V19.5681C12.25 20.359 11.5448 21 10.675 21H8.575C7.70515 21 7 20.359 7 19.5681V12.3892C7 11.955 7.21677 11.5442 7.58934 11.2724L13.0143 7.31506ZM14.3286 8.05962C14.1366 7.91959 13.8634 7.91959 13.6714 8.05962L8.24645 12.017C8.12225 12.1076 8.05 12.2445 8.05 12.3892V19.5681C8.05 19.8317 8.28505 20.0454 8.575 20.0454H10.675C10.9649 20.0454 11.2 19.8317 11.2 19.5681V15.7497C11.2 14.9589 11.9052 14.3178 12.775 14.3178H15.225C16.0948 14.3178 16.8 14.9589 16.8 15.7497V19.5681C16.8 19.8317 17.0351 20.0454 17.325 20.0454H19.425C19.7149 20.0454 19.95 19.8317 19.95 19.5681V12.3892C19.95 12.2445 19.8778 12.1076 19.7536 12.017L14.3286 8.05962Z" fill="#F2F2F2"></path>
</svg>