<svg width="28" height="28" viewBox="0 0 28 28" fill="none" xmlns="http://www.w3.org/2000/svg">
<path d="M20.8787 8.23838C21.5526 8.66631 22 9.42044 22 10.2791V18.093C22 20.2508 20.2508 22 18.093 22H10.2791C9.42044 22 8.66631 21.5526 8.23711 20.8781L8.32802 20.8824L8.4186 20.8837H18.093C19.6343 20.8837 20.8837 19.6343 20.8837 18.093V8.4186C20.8837 8.35812 20.882 8.29803 20.8787 8.23838ZM17.7209 6C19.0567 6 20.1395 7.08284 20.1395 8.4186V17.7209C20.1395 19.0567 19.0567 20.1395 17.7209 20.1395H8.4186C7.08284 20.1395 6 19.0567 6 17.7209V8.4186C6 7.08284 7.08284 6 8.4186 6H17.7209ZM18.1537 18.9497L13.4602 14.3521C13.2629 14.1589 12.9581 14.1413 12.7413 14.2994L12.6791 14.3521L7.98582 18.9497C8.12123 18.9973 8.26689 19.0233 8.4186 19.0233H17.7209C17.8727 19.0233 18.0183 18.9973 18.1537 18.9497ZM17.7209 7.11628H8.4186C7.69935 7.11628 7.11628 7.69935 7.11628 8.4186V17.7209C7.11628 17.8757 7.14329 18.0243 7.19286 18.162L11.898 13.5546C12.518 12.9473 13.4919 12.9185 14.1456 13.4678L14.2412 13.5546L18.9464 18.1628C18.9962 18.0248 19.0233 17.876 19.0233 17.7209V8.4186C19.0233 7.69935 18.4402 7.11628 17.7209 7.11628ZM15.6747 9.53575C16.1882 9.53575 16.6044 9.95199 16.6044 10.4655C16.6044 10.9789 16.1882 11.3951 15.6747 11.3951C15.1613 11.3951 14.7451 10.9789 14.7451 10.4655C14.7451 9.95199 15.1613 9.53575 15.6747 9.53575Z" fill="#F2F2F2"></path>
</svg>