<svg width="28" height="28" viewBox="0 0 28 28" fill="none" xmlns="http://www.w3.org/2000/svg">
<path d="M20.2046 6.29284C19.8142 5.90239 19.1812 5.90239 18.7907 6.29284L17.2882 7.79547C16.8978 8.18592 16.8978 8.81898 17.2882 9.20943L18.7907 10.7121C19.1812 11.1025 19.8142 11.1025 20.2046 10.7121L21.7071 9.20943C22.0976 8.81898 22.0976 8.18592 21.7071 7.79547L20.2046 6.29284ZM17.9951 8.50245L19.4977 6.99982L21.0002 8.50245L19.4977 10.0051L17.9951 8.50245ZM15.9956 8.00252H8.4994C7.11902 8.00252 6 9.12161 6 10.5021V19.5004C6 20.881 7.11902 22 8.4994 22H17.4972C18.8776 22 19.9966 20.881 19.9966 19.5004V12.0018H15.9956V8.00252ZM8.35497 20.9934C7.59451 20.9207 6.99976 20.28 6.99976 19.5004V18.0007H9.99904V21.0002H8.4994L8.35497 20.9934ZM10.9988 18.0007H14.9978V21.0002H10.9988V18.0007ZM18.99 19.6449C18.9173 20.4055 18.2767 21.0002 17.4972 21.0002H15.9976V18.0007H18.9969V19.5004L18.99 19.6449ZM10.9988 13.0016H14.9978V17.0009H10.9988V13.0016ZM15.9976 17.0009V13.0016H18.9969V17.0009H15.9976ZM10.9988 9.00234H14.9978V12.0018H10.9988V9.00234ZM8.4994 9.00234H9.99904V12.0018H6.99976V10.5021L7.00663 10.3576C7.07929 9.59712 7.71989 9.00234 8.4994 9.00234ZM6.99976 17.0009V13.0016H9.99904V17.0009H6.99976Z" fill="#F2F2F2"></path>
</svg>