<svg width="28" height="28" viewBox="0 0 28 28" fill="none" xmlns="http://www.w3.org/2000/svg">
<path d="M22 11.1364C22 13.4208 20.0599 15.2727 17.6667 15.2727C15.2734 15.2727 13.3333 13.4208 13.3333 11.1364C13.3333 8.85191 15.2734 7 17.6667 7C20.0599 7 22 8.85191 22 11.1364ZM15.9024 9.00229C15.7722 8.87802 15.5611 8.87802 15.4309 9.00229C15.3008 9.12654 15.3008 9.328 15.4309 9.45226L17.1953 11.1364L15.4309 12.8204C15.3008 12.9447 15.3008 13.1462 15.4309 13.2705C15.5611 13.3947 15.7722 13.3947 15.9024 13.2705L17.6667 11.5863L19.4309 13.2705C19.5611 13.3947 19.7722 13.3947 19.9024 13.2705C20.0325 13.1462 20.0325 12.9447 19.9024 12.8204L18.1381 11.1364L19.9024 9.45226C20.0325 9.328 20.0325 9.12654 19.9024 9.00229C19.7722 8.87802 19.5611 8.87802 19.4309 9.00229L17.6667 10.6864L15.9024 9.00229ZM19.6667 18.9318V15.5119C20.0237 15.3631 20.3589 15.1756 20.6667 14.9549V18.9318C20.6667 20.0346 19.7623 20.9359 18.6229 20.9968L18.5 21H8.16667C7.01131 21 6.06717 20.1368 6.00343 19.0492L6 18.9318V11.6136C6 10.5108 6.9043 9.60957 8.04372 9.54873L8.16667 9.54545H12.9512C12.8382 9.85059 12.7568 10.17 12.7107 10.5H8.16667C7.55455 10.5 7.05254 10.95 7.00387 11.5223L7 11.6136V12.2271L13.3333 15.3712L14.4703 14.8067C14.7638 15.0398 15.0856 15.2414 15.4301 15.4062L13.564 16.3325C13.4435 16.3923 13.3039 16.4023 13.177 16.3624L13.1027 16.3325L7 13.3032V18.9318C7 19.5161 7.47141 19.9953 8.07098 20.0418L8.16667 20.0455H18.5C19.1121 20.0455 19.6141 19.5955 19.6628 19.0231L19.6667 18.9318Z" fill="#F2F2F2"></path>
</svg>