<svg width="28" height="28" viewBox="0 0 28 28" fill="none" xmlns="http://www.w3.org/2000/svg">
<path d="M21.043 6.72012L21.1649 6.83517L21.2799 6.95706C22.277 8.0768 22.2386 9.79393 21.1649 10.8677L11.628 20.4046C11.4073 20.6252 11.133 20.7845 10.8319 20.8665L6.75554 21.9783C6.3094 22.1 5.90004 21.6905 6.02172 21.2445L7.13346 17.1681C7.21556 16.867 7.37479 16.5927 7.59541 16.372L17.1323 6.83517C18.2061 5.76138 19.9232 5.72303 21.043 6.72012ZM16.3598 9.29813L8.44059 17.2172C8.36705 17.2908 8.31397 17.3822 8.28661 17.4826L7.45005 20.5499L10.5174 19.7133C10.6178 19.686 10.7092 19.6329 10.7828 19.5594L18.7017 11.64L16.3598 9.29813ZM9.60637 13.2337L8.41111 14.429L6.59829 14.4293C6.26822 14.4293 6.00066 14.1617 6.00066 13.8317C6.00066 13.5016 6.26822 13.2341 6.59829 13.2341L9.60637 13.2337ZM12.7937 10.0464L11.5985 11.2416L6.59829 11.242C6.26822 11.242 6.00066 10.9744 6.00066 10.6443C6.00066 10.3143 6.26822 10.0467 6.59829 10.0467L12.7937 10.0464ZM17.9775 7.68034L17.2044 8.45267L19.5463 10.7954L20.3197 10.0225C20.9665 9.37576 20.9665 8.32712 20.3197 7.68034C19.6729 7.03357 18.6242 7.03357 17.9775 7.68034ZM15.9811 6.859L14.7858 8.05425L6.59829 8.0546C6.26822 8.0546 6.00066 7.78703 6.00066 7.45696C6.00066 7.12691 6.26822 6.85933 6.59829 6.85933L15.9811 6.859Z" fill="#F2F2F2"></path>
</svg>