<svg width="28" height="28" viewBox="0 0 28 28" fill="none" xmlns="http://www.w3.org/2000/svg">
<path d="M17.8095 12.8333C18.9209 12.8333 19.9868 13.3162 20.7726 14.1758C21.5585 15.0353 22 16.2011 22 17.4167C22 18.6322 21.5585 19.798 20.7726 20.6576C19.9868 21.5171 18.9209 22 17.8095 22C16.6981 22 15.6323 21.5171 14.8464 20.6576C14.0605 19.798 13.619 18.6322 13.619 17.4167C13.619 16.2011 14.0605 15.0353 14.8464 14.1758C15.6323 13.3162 16.6981 12.8333 17.8095 12.8333ZM10.7291 7C11.0796 7 11.421 7.1175 11.7074 7.335L11.8263 7.435L13.6358 9.08333H19.5238C19.9374 9.08319 20.3371 9.24657 20.6492 9.54337C20.9613 9.84016 21.1647 10.2504 21.2221 10.6983L21.2343 10.83L21.2381 10.9583V13.5083C20.8983 13.1514 20.5137 12.8492 20.096 12.6108L20.0952 10.9583C20.0952 10.8073 20.0452 10.6614 19.9545 10.5476C19.8637 10.4337 19.7383 10.3597 19.6015 10.3392L19.5238 10.3333H13.635L11.8263 11.9825C11.5575 12.2271 11.2268 12.376 10.8785 12.4092L10.7291 12.4167L7.14286 12.4158V18.4583C7.14286 18.775 7.35771 19.0367 7.63657 19.0775L7.71429 19.0833H13.0964C13.2274 19.5283 13.4103 19.9483 13.6366 20.3342L7.71429 20.3333C7.2799 20.3334 6.8617 20.1531 6.54419 19.8289C6.22668 19.5046 6.03354 19.0607 6.00381 18.5867L6 18.4583V8.875C5.99995 8.39989 6.1648 7.94248 6.46123 7.59521C6.75767 7.24793 7.16359 7.03669 7.59695 7.00417L7.71429 7H10.7291ZM18.032 14.9542L17.9741 14.9908L17.9208 15.0383L17.8773 15.0967C17.8334 15.1662 17.8099 15.2488 17.8099 15.3333C17.8099 15.4179 17.8334 15.5004 17.8773 15.57L17.9208 15.6283L19.1749 17H15.1429L15.0743 17.0067C14.9982 17.0219 14.9281 17.0621 14.8734 17.1219C14.8187 17.1818 14.7819 17.2584 14.768 17.3417L14.7619 17.4167L14.768 17.4917C14.7819 17.5749 14.8187 17.6516 14.8734 17.7114C14.9281 17.7713 14.9982 17.8115 15.0743 17.8267L15.1429 17.8333H19.1749L17.9208 19.205L17.8773 19.2633C17.8272 19.3435 17.8042 19.4404 17.8124 19.5372C17.8206 19.634 17.8595 19.7245 17.9224 19.7933C17.9852 19.862 18.068 19.9045 18.1565 19.9135C18.245 19.9225 18.3335 19.8974 18.4069 19.8425L18.4602 19.795L20.3863 17.685L20.4213 17.6325L20.4472 17.5758L20.4632 17.5233L20.4747 17.455L20.4762 17.4167L20.4739 17.3725L20.4632 17.31L20.4404 17.2408L20.4084 17.1792L20.3741 17.1325L18.4602 15.0383L18.4069 14.9908C18.3526 14.9497 18.2896 14.9248 18.2239 14.9183C18.1581 14.9119 18.092 14.9243 18.032 14.9542ZM10.7291 8.25H7.71429C7.5762 8.25001 7.44279 8.3047 7.33872 8.40397C7.23465 8.50324 7.16697 8.64037 7.14819 8.79L7.14286 8.875V11.1658L10.7291 11.1667C10.8355 11.1665 10.9397 11.1339 11.0301 11.0725L11.0949 11.0225L12.5356 9.7075L11.0956 8.395C11.0136 8.32017 10.9141 8.27196 10.8084 8.25583L10.7291 8.25Z" fill="#F2F2F2"></path>
</svg>