<svg width="28" height="28" viewBox="0 0 28 28" fill="none" xmlns="http://www.w3.org/2000/svg">
<path d="M10.4325 6.19102C10.6588 6.4457 10.6588 6.85864 10.4325 7.11333L6.97869 11H13.6932C18.2809 11 22 15.1851 22 20.3478C22 20.708 21.7405 21 21.4205 21C21.1004 21 20.8409 20.708 20.8409 20.3478C20.8409 15.9056 17.6407 12.3043 13.6932 12.3043H6.97869L10.4325 16.191C10.6588 16.4457 10.6588 16.8586 10.4325 17.1133C10.2062 17.368 9.83925 17.368 9.61293 17.1133L5.16974 12.1133C4.94342 11.8586 4.94342 11.4457 5.16974 11.191L9.61293 6.19102C9.83925 5.93633 10.2062 5.93633 10.4325 6.19102Z" fill="#F2F2F2"></path>
</svg>