<svg width="28" height="28" viewBox="0 0 28 28" fill="none" xmlns="http://www.w3.org/2000/svg">
<path d="M21.8472 6.89066C22.0509 6.68691 22.0509 6.35656 21.8472 6.15281C21.6434 5.94906 21.3131 5.94906 21.1093 6.15281L11.8919 15.3702L11.5681 16.4348L12.6298 16.108L21.8472 6.89066ZM8.26087 6.69565C7.01223 6.69565 6 7.70787 6 8.95652V19.7391C6 20.9878 7.01222 22 8.26087 22H19.0435C20.2921 22 21.3044 20.9878 21.3044 19.7391V12.4031C21.3044 12.115 21.0708 11.8814 20.7826 11.8814C20.4945 11.8814 20.2609 12.115 20.2609 12.4031V19.7391C20.2609 20.4115 19.7158 20.9565 19.0435 20.9565H8.26087C7.58852 20.9565 7.04348 20.4115 7.04348 19.7391V8.95652C7.04348 8.28417 7.58852 7.73913 8.26087 7.73913H15.5968C15.885 7.73913 16.1186 7.50554 16.1186 7.21739C16.1186 6.92924 15.885 6.69565 15.5968 6.69565H8.26087Z" fill="#F2F2F2"></path>
</svg>