<svg width="28" height="28" viewBox="0 0 28 28" fill="none" xmlns="http://www.w3.org/2000/svg">
<path d="M15.3913 8.56C15.3913 7.67635 14.6127 6.96 13.6522 6.96C12.6917 6.96 11.913 7.67635 11.913 8.56H15.3913ZM10.8696 8.56C10.8696 7.14615 12.1154 6 13.6522 6C15.1889 6 16.4348 7.14615 16.4348 8.56H20.7826C21.0707 8.56 21.3043 8.77491 21.3043 9.04C21.3043 9.30509 21.0707 9.52 20.7826 9.52H19.8714L19.5181 13.4207C19.1933 13.2937 18.8518 13.196 18.4972 13.1315L18.8243 9.52H8.48008L9.31949 18.7862C9.40212 19.6984 10.231 20.4 11.2259 20.4H13.0641C13.3071 20.7539 13.599 21.0766 13.9311 21.36H11.2259C9.68828 21.36 8.40733 20.2756 8.27962 18.8659L7.43298 9.52H6.52174C6.23359 9.52 6 9.30509 6 9.04C6 8.77491 6.23359 8.56 6.52174 8.56H10.8696ZM22 17.84C22 20.1375 19.9756 22 17.4783 22C14.9809 22 12.9565 20.1375 12.9565 17.84C12.9565 15.5425 14.9809 13.68 17.4783 13.68C19.9756 13.68 22 15.5425 22 17.84ZM17.4783 17.3875L15.6373 15.6937C15.5014 15.5688 15.2812 15.5688 15.1453 15.6937C15.0095 15.8187 15.0095 16.0213 15.1453 16.1463L16.9864 17.84L15.1453 19.5337C15.0095 19.6587 15.0095 19.8613 15.1453 19.9863C15.2812 20.1112 15.5014 20.1112 15.6373 19.9863L17.4783 18.2925L19.3192 19.9863C19.4551 20.1112 19.6753 20.1112 19.8112 19.9863C19.947 19.8613 19.947 19.6587 19.8112 19.5337L17.9702 17.84L19.8112 16.1463C19.947 16.0213 19.947 15.8187 19.8112 15.6937C19.6753 15.5688 19.4551 15.5688 19.3192 15.6937L17.4783 17.3875Z" fill="#F2F2F2"></path>
</svg>