<svg width="28" height="28" viewBox="0 0 28 28" fill="none" xmlns="http://www.w3.org/2000/svg">
<path d="M17.5338 11.4115C18.0559 11.4115 18.4791 10.9883 18.4791 10.4662C18.4791 9.94411 18.0559 9.52088 17.5338 9.52088C17.0117 9.52088 16.5885 9.94411 16.5885 10.4662C16.5885 10.9883 17.0117 11.4115 17.5338 11.4115ZM14.8778 7C14.3345 7 13.8136 7.21579 13.4295 7.59991L7.59991 13.4294C6.80003 14.2293 6.80003 15.5262 7.59991 16.326L11.6739 20.4001C12.4738 21.2 13.7707 21.2 14.5706 20.4001L20.4001 14.5706C20.7842 14.1865 21 13.6654 21 13.1223V8.7331C21 7.77594 20.2241 7 19.2669 7H14.8778ZM14.0979 8.26835C14.3047 8.06152 14.5852 7.94533 14.8778 7.94533H19.2669C19.702 7.94533 20.0547 8.29802 20.0547 8.7331V13.1223C20.0547 13.4147 19.9385 13.6953 19.7317 13.9021L13.9021 19.7316C13.4714 20.1623 12.7731 20.1623 12.3424 19.7316L8.26836 15.6576C7.83765 15.2269 7.83765 14.5286 8.26836 14.0979L14.0979 8.26835Z" fill="#F2F2F2"></path>
</svg>