<svg width="28" height="28" viewBox="0 0 28 28" fill="none" xmlns="http://www.w3.org/2000/svg">
<path d="M10.8525 20.0752L16.0525 7.38796C16.1881 7.05724 16.543 6.90933 16.8454 7.05757C17.1226 7.19348 17.2594 7.53107 17.1758 7.84113L17.1475 7.92484L11.9475 20.612C11.812 20.9428 11.4569 21.0907 11.1546 20.9424C10.8774 20.8066 10.7407 20.4689 10.8242 20.1589L10.8525 20.0752ZM6.17574 13.536L9.57574 9.81731C9.81005 9.56103 10.19 9.56103 10.4243 9.81731C10.6373 10.0503 10.6566 10.4149 10.4824 10.6718L10.4243 10.7454L7.44853 14L10.4243 17.2547C10.6586 17.5109 10.6586 17.9264 10.4243 18.1827C10.2113 18.4157 9.87792 18.4368 9.64303 18.2462L9.57574 18.1827L6.17574 14.464C5.96272 14.231 5.94336 13.8665 6.11764 13.6096L6.17574 13.536ZM17.5758 9.81731C17.7887 9.58433 18.1221 9.56315 18.357 9.75377L18.4242 9.81731L21.8242 13.536C22.0373 13.7689 22.0566 14.1335 21.8823 14.3904L21.8242 14.464L18.4242 18.1827C18.1899 18.4389 17.8101 18.4389 17.5758 18.1827C17.3627 17.9497 17.3434 17.5851 17.5177 17.3282L17.5758 17.2547L20.5514 14L17.5758 10.7454C17.3414 10.4891 17.3414 10.0736 17.5758 9.81731Z" fill="#F2F2F2"></path>
</svg>