<svg width="28" height="28" viewBox="0 0 28 28" fill="none" xmlns="http://www.w3.org/2000/svg">
<path d="M12.6 9.39024H15.4C15.4 8.6359 14.7732 8.02439 14 8.02439C13.2268 8.02439 12.6 8.6359 12.6 9.39024ZM11.55 9.39024C11.55 8.07015 12.6469 7 14 7C15.3531 7 16.45 8.07015 16.45 9.39024H20.475C20.7649 9.39024 21 9.61956 21 9.90244C21 10.1853 20.7649 10.4146 20.475 10.4146H19.5516L18.7312 18.6857C18.601 19.9984 17.4703 21 16.1184 21H11.8816C10.5298 21 9.399 19.9984 9.26879 18.6857L8.44836 10.4146H7.525C7.23505 10.4146 7 10.1853 7 9.90244C7 9.61956 7.23505 9.39024 7.525 9.39024H11.55ZM12.95 12.6341C12.95 12.3513 12.7149 12.122 12.425 12.122C12.1351 12.122 11.9 12.3513 11.9 12.6341V17.7561C11.9 18.039 12.1351 18.2683 12.425 18.2683C12.7149 18.2683 12.95 18.039 12.95 17.7561V12.6341ZM15.575 12.122C15.8649 12.122 16.1 12.3513 16.1 12.6341V17.7561C16.1 18.039 15.8649 18.2683 15.575 18.2683C15.2851 18.2683 15.05 18.039 15.05 17.7561V12.6341C15.05 12.3513 15.2851 12.122 15.575 12.122ZM10.3139 18.587C10.392 19.3746 11.0705 19.9756 11.8816 19.9756H16.1184C16.9295 19.9756 17.6079 19.3746 17.6861 18.587L18.4967 10.4146H9.50326L10.3139 18.587Z" fill="#F2F2F2"></path>
</svg>