<svg width="28" height="28" viewBox="0 0 28 28" fill="none" xmlns="http://www.w3.org/2000/svg">
<path d="M12.3636 12.9091C12.0624 12.9091 11.8182 13.1533 11.8182 13.4545C11.8182 13.7558 12.0624 14 12.3636 14H15.6364C15.9376 14 16.1818 13.7558 16.1818 13.4545C16.1818 13.1533 15.9376 12.9091 15.6364 12.9091H12.3636ZM6 7.63636C6 6.73263 6.73263 6 7.63636 6H20.3636C21.2673 6 22 6.73263 22 7.63636V9.09091C22 9.65825 21.7113 10.1582 21.2727 10.4517V18.5455C21.2727 20.4534 19.7261 22 17.8182 22H10.1818C8.27393 22 6.72727 20.4534 6.72727 18.5455V10.4517C6.28873 10.1582 6 9.65825 6 9.09091V7.63636ZM7.81818 10.7273V18.5455C7.81818 19.8508 8.87641 20.9091 10.1818 20.9091H17.8182C19.1236 20.9091 20.1818 19.8508 20.1818 18.5455V10.7273H7.81818ZM7.63636 7.09091C7.33512 7.09091 7.09091 7.33512 7.09091 7.63636V9.09091C7.09091 9.39215 7.33512 9.63636 7.63636 9.63636H20.3636C20.6649 9.63636 20.9091 9.39215 20.9091 9.09091V7.63636C20.9091 7.33512 20.6649 7.09091 20.3636 7.09091H7.63636Z" fill="#F2F2F2"></path>
</svg>