<svg width="28" height="28" viewBox="0 0 28 28" fill="none" xmlns="http://www.w3.org/2000/svg">
<path d="M16.8871 7.11333C16.674 6.85864 16.674 6.4457 16.8871 6.19102C17.1001 5.93633 17.4454 5.93633 17.6584 6.19102L21.8402 11.191C22.0533 11.4457 22.0533 11.8586 21.8402 12.1133L17.6584 17.1133C17.4454 17.368 17.1001 17.368 16.8871 17.1133C16.674 16.8586 16.674 16.4457 16.8871 16.191L20.1377 12.3043H13.8182C10.1028 12.3043 7.09091 15.9056 7.09091 20.3478C7.09091 20.708 6.8467 21 6.54546 21C6.24421 21 6 20.708 6 20.3478C6 15.1851 9.50032 11 13.8182 11H20.1377L16.8871 7.11333Z" fill="#F2F2F2"></path>
</svg>