<svg width="28" height="28" viewBox="0 0 28 28" fill="none" xmlns="http://www.w3.org/2000/svg">
<path d="M20.6667 11.4421C21.455 11.0676 22 10.2641 22 9.33333C22 8.04467 20.9553 7 19.6667 7C18.4912 7 17.5187 7.86923 17.3569 9C17.3566 9.00234 17.3563 9.00467 17.356 9.00701C17.3411 9.11365 17.3333 9.22259 17.3333 9.33333C17.3333 9.56499 17.3671 9.78877 17.4299 10C17.7168 10.9638 18.6097 11.6667 19.6667 11.6667C20.0245 11.6667 20.3636 11.5861 20.6667 11.4421ZM8.16667 9H16.3498C16.3389 9.10963 16.3333 9.22083 16.3333 9.33333C16.3333 9.56165 16.3563 9.78459 16.4 10H8.16667C7.55455 10 7.05254 10.4714 7.00387 11.071L7 11.1667V11.8093L13.3333 15.1031L18.4549 12.4395C18.8305 12.5862 19.2391 12.6667 19.6667 12.6667C20.0151 12.6667 20.351 12.6132 20.6667 12.5141V18.8333C20.6667 19.9887 19.7623 20.9328 18.6229 20.9966L18.5 21H8.16667C7.01131 21 6.06717 20.0957 6.00343 18.9563L6 18.8333V11.1667C6 10.0113 6.9043 9.06717 8.04372 9.00343L8.16667 9ZM19.6667 12.9367L13.564 16.1103C13.4435 16.1729 13.3039 16.1834 13.177 16.1416L13.1027 16.1103L7 12.9367V18.8333C7 19.4455 7.47141 19.9475 8.07098 19.9961L8.16667 20H18.5C19.1121 20 19.6141 19.5286 19.6628 18.929L19.6667 18.8333V12.9367Z" fill="#F2F2F2"></path>
</svg>