<svg width="28" height="28" viewBox="0 0 28 28" fill="none" xmlns="http://www.w3.org/2000/svg">
<path d="M12.1044 8.81026C12.2167 8.4959 12.5807 8.326 12.9176 8.43079L14 8.76754L15.0824 8.43079C15.4193 8.326 15.7833 8.4959 15.8956 8.81026C16.0079 9.12463 15.8258 9.46442 15.489 9.56921L14.6429 9.83246V10.6C14.6429 10.9314 14.355 11.2 14 11.2C13.645 11.2 13.3571 10.9314 13.3571 10.6V9.83246L12.511 9.56921C12.1742 9.46442 11.9921 9.12463 12.1044 8.81026ZM14.2033 6.03079C14.0713 5.98974 13.9287 5.98974 13.7967 6.03079L10.5824 7.03079C10.3199 7.11246 10.1429 7.34174 10.1429 7.6V11.6C10.1429 11.8583 10.3199 12.0875 10.5824 12.1692L13.3571 13.0325V14.8H11.8571C10.792 14.8 9.92857 15.6059 9.92857 16.6V17.2756C8.8195 17.542 8 18.4817 8 19.6C8 20.9255 9.15127 22 10.5714 22C11.9916 22 13.1429 20.9255 13.1429 19.6C13.1429 18.4817 12.3233 17.542 11.2143 17.2756V16.6C11.2143 16.2686 11.5021 16 11.8571 16H16.1429C16.4979 16 16.7857 16.2686 16.7857 16.6V17.2756C15.6767 17.542 14.8571 18.4817 14.8571 19.6C14.8571 20.9255 16.0084 22 17.4286 22C18.8488 22 20 20.9255 20 19.6C20 18.4817 19.1805 17.542 18.0714 17.2756V16.6C18.0714 15.6059 17.2079 14.8 16.1429 14.8H14.6429V13.0325L17.4176 12.1692C17.6801 12.0875 17.8571 11.8583 17.8571 11.6V7.6C17.8571 7.34174 17.6801 7.11246 17.4176 7.03079L14.2033 6.03079ZM11.4286 11.1675V8.03246L14 7.23246L16.5714 8.03246V11.1675L14 11.9675L11.4286 11.1675ZM10.5714 18.4C11.2815 18.4 11.8571 18.9373 11.8571 19.6C11.8571 20.2627 11.2815 20.8 10.5714 20.8C9.86135 20.8 9.28571 20.2627 9.28571 19.6C9.28571 18.9373 9.86135 18.4 10.5714 18.4ZM16.1429 19.6C16.1429 18.9373 16.7185 18.4 17.4286 18.4C18.1386 18.4 18.7143 18.9373 18.7143 19.6C18.7143 20.2627 18.1386 20.8 17.4286 20.8C16.7185 20.8 16.1429 20.2627 16.1429 19.6Z" fill="#F2F2F2"></path>
</svg>