<svg width="28" height="28" viewBox="0 0 28 28" fill="none" xmlns="http://www.w3.org/2000/svg">
<path d="M9.06818 8H18.9318C20.0346 8 20.9359 8.90431 20.9968 10.0437L21 10.1667V17.8333C21 18.9887 20.1368 19.9328 19.0492 19.9966L18.9318 20H9.06818C7.96534 20 7.06411 19.0957 7.00327 17.9563L7 17.8333V10.1667C7 9.01131 7.8632 8.06717 8.95082 8.00343L9.06818 8ZM20.0455 11.9367L14.2202 15.1103C14.1052 15.1729 13.9719 15.1834 13.8508 15.1416L13.7798 15.1103L7.95455 11.9367V17.8333C7.95455 18.4455 8.40452 18.9475 8.97684 18.9961L9.06818 19H18.9318C19.5161 19 19.9953 18.5286 20.0418 17.929L20.0455 17.8333V11.9367ZM18.9318 9H9.06818C8.48389 9 8.0047 9.47141 7.95824 10.071L7.95455 10.1667V10.8093L14 14.1031L20.0455 10.8093V10.1667C20.0455 9.55455 19.5955 9.05254 19.0231 9.00387L18.9318 9Z" fill="#F2F2F2"></path>
</svg>