<svg width="28" height="28" viewBox="0 0 28 28" fill="none" xmlns="http://www.w3.org/2000/svg">
<path d="M11.1129 6.19102C11.326 6.4457 11.326 6.85864 11.1129 7.11333L7.31684 11.6522L11.1129 16.191C11.326 16.4457 11.326 16.8586 11.1129 17.1133C10.9 17.368 10.5546 17.368 10.3416 17.1133L6.15976 12.1133C5.94675 11.8586 5.94675 11.4457 6.15976 11.191L10.3416 6.19102C10.5546 5.93633 10.9 5.93633 11.1129 6.19102ZM14.2039 6.19102C14.4169 6.4457 14.4169 6.85864 14.2039 7.11333L10.9532 11H14.1818C18.4997 11 22 15.1851 22 20.3478C22 20.708 21.7558 21 21.4545 21C21.1533 21 20.9091 20.708 20.9091 20.3478C20.9091 15.9056 17.8972 12.3043 14.1818 12.3043H10.9532L14.2039 16.191C14.4169 16.4457 14.4169 16.8586 14.2039 17.1133C13.9908 17.368 13.6455 17.368 13.4325 17.1133L9.25067 12.1133C9.03766 11.8586 9.03766 11.4457 9.25067 11.191L13.4325 6.19102C13.6455 5.93633 13.9908 5.93633 14.2039 6.19102Z" fill="#F2F2F2"></path>
</svg>