<svg width="28" height="28" viewBox="0 0 28 28" fill="none" xmlns="http://www.w3.org/2000/svg">
<path d="M17.4005 8.92473C17.1995 9.16984 17.2502 9.52008 17.5137 9.707C18.9443 10.722 19.8 12.2945 19.8 14C19.8 16.7803 17.5394 19.0694 14.6346 19.3634L15.1758 18.8598C15.4101 18.6418 15.4101 18.2885 15.1758 18.0705C14.9627 17.8723 14.6294 17.8543 14.3945 18.0165L14.3272 18.0705L12.7272 19.5589C12.5142 19.757 12.4948 20.0671 12.6691 20.2856L12.7272 20.3481L14.3272 21.8365C14.5615 22.0545 14.9414 22.0545 15.1758 21.8365C15.3887 21.6384 15.4081 21.3283 15.2338 21.1098L15.1758 21.0472L14.5755 20.4899C18.1723 20.2177 21 17.416 21 14C21 11.9425 19.9666 10.0433 18.2414 8.8194C17.9779 8.63247 17.6014 8.67963 17.4005 8.92473ZM12.8242 6.16347C12.5899 6.38144 12.5899 6.73484 12.8242 6.9528L13.4237 7.51012C9.82727 7.78277 7 10.5842 7 14C7 15.968 7.94501 17.7934 9.54465 19.0226C9.80013 19.2189 10.1783 19.1854 10.3894 18.9477C10.6004 18.7101 10.5644 18.3583 10.3089 18.1619C8.98234 17.1426 8.2 15.6314 8.2 14C8.2 11.22 10.4603 8.93106 13.3646 8.63666L12.8242 9.14022C12.5899 9.35819 12.5899 9.71159 12.8242 9.92955C13.0586 10.1475 13.4385 10.1475 13.6728 9.92955L15.2728 8.44118C15.5071 8.22321 15.5071 7.86981 15.2728 7.65185L13.6728 6.16347C13.4385 5.94551 13.0586 5.94551 12.8242 6.16347Z" fill="#F2F2F2"></path>
</svg>