<svg width="28" height="28" viewBox="0 0 28 28" fill="none" xmlns="http://www.w3.org/2000/svg">
<path d="M14 6C14.2945 6 14.5333 6.22386 14.5333 6.5V21.5C14.5333 21.7761 14.2945 22 14 22C13.7055 22 13.4667 21.7761 13.4667 21.5V6.5C13.4667 6.22386 13.7055 6 14 6ZM6 10C6 8.89543 6.95513 8 8.13333 8H12.4V9H8.13333C7.54423 9 7.06667 9.44772 7.06667 10V18C7.06667 18.5523 7.54423 19 8.13333 19H12.4V20H8.13333C6.95513 20 6 19.1046 6 18V10ZM19.8667 9C20.4558 9 20.9333 9.44772 20.9333 10V10.5C20.9333 10.7761 21.1722 11 21.4667 11C21.7612 11 22 10.7761 22 10.5V10C22 8.89543 21.0449 8 19.8667 8H19.3333C19.0388 8 18.8 8.22386 18.8 8.5C18.8 8.77614 19.0388 9 19.3333 9H19.8667ZM19.8667 19C20.4558 19 20.9333 18.5523 20.9333 18V17.5C20.9333 17.2239 21.1722 17 21.4667 17C21.7612 17 22 17.2239 22 17.5V18C22 19.1046 21.0449 20 19.8667 20H19.3333C19.0388 20 18.8 19.7761 18.8 19.5C18.8 19.2239 19.0388 19 19.3333 19H19.8667ZM21.4667 12C21.1722 12 20.9333 12.2239 20.9333 12.5V15.5C20.9333 15.7761 21.1722 16 21.4667 16C21.7612 16 22 15.7761 22 15.5V12.5C22 12.2239 21.7612 12 21.4667 12ZM17.2 8C17.4945 8 17.7333 8.22386 17.7333 8.5C17.7333 8.77614 17.4945 9 17.2 9H16.1333C15.8388 9 15.6 8.77614 15.6 8.5C15.6 8.22386 15.8388 8 16.1333 8H17.2ZM17.7333 19.5C17.7333 19.2239 17.4945 19 17.2 19H16.1333C15.8388 19 15.6 19.2239 15.6 19.5C15.6 19.7761 15.8388 20 16.1333 20H17.2C17.4945 20 17.7333 19.7761 17.7333 19.5Z" fill="#F2F2F2"></path>
</svg>