<svg width="28" height="28" viewBox="0 0 28 28" fill="none" xmlns="http://www.w3.org/2000/svg">
<path d="M22 10.3421C22 12.7402 20.1239 14.6842 17.8095 14.6842C15.4952 14.6842 13.619 12.7402 13.619 10.3421C13.619 7.94402 15.4952 6 17.8095 6C20.1239 6 22 7.94402 22 10.3421ZM20.3646 8.48404C20.2158 8.32988 19.9746 8.32988 19.8258 8.48404L17.0476 11.3628L15.7932 10.063C15.6444 9.90883 15.4032 9.90883 15.2544 10.063C15.1057 10.2171 15.1057 10.4671 15.2544 10.6212L16.7782 12.2002C16.927 12.3543 17.1682 12.3543 17.317 12.2002L20.3646 9.04228C20.5134 8.88812 20.5134 8.63819 20.3646 8.48404ZM20.0952 18.4342V14.8956C20.515 14.6689 20.8996 14.3817 21.2381 14.0451V18.4342C21.2381 19.8024 20.2046 20.9204 18.9024 20.996L18.7619 21H8.47619C7.15579 21 6.07676 19.9291 6.00392 18.5798L6 18.4342V10.9342C6 9.56603 7.03349 8.44796 8.33568 8.37248L8.47619 8.36842H13.2367C13.086 8.74277 12.9769 9.13957 12.9154 9.55263H8.47619C7.77663 9.55263 7.2029 10.1109 7.14728 10.8209L7.14286 10.9342V11.2729L13.619 14.8046L14.6135 14.2622C14.9476 14.555 15.3196 14.8027 15.7209 14.9964L13.8852 15.9977C13.7424 16.0755 13.5757 16.0866 13.4261 16.0311L13.3529 15.9977L7.14286 12.6111V18.4342C7.14286 19.1591 7.68161 19.7536 8.36683 19.8112L8.47619 19.8158H18.7619C19.4615 19.8158 20.0352 19.2576 20.0908 18.5475L20.0952 18.4342Z" fill="#F2F2F2"></path>
</svg>