<svg width="28" height="28" viewBox="0 0 28 28" fill="none" xmlns="http://www.w3.org/2000/svg">
<path d="M13.8118 7.40336C15.6839 5.53227 18.7214 5.53227 20.5949 7.40301C22.4203 9.22579 22.4672 12.1521 20.7353 14.0314L20.5848 14.189L13.5488 21.2134L13.5195 21.2376C12.3512 22.2888 10.549 22.2531 9.42376 21.1295C8.36913 20.0764 8.27149 18.4296 9.13084 17.2665C9.1495 17.2303 9.17209 17.1954 9.19864 17.1626L9.24147 17.1149L9.31095 17.0449L9.42376 16.9268L9.42608 16.9291L15.3714 10.9777C15.584 10.7648 15.9171 10.745 16.152 10.9187L16.2194 10.9765C16.4326 11.1888 16.4524 11.5215 16.2785 11.7561L16.2206 11.8234L10.1482 17.9016C9.57445 18.6007 9.61433 19.634 10.2679 20.2866C10.9308 20.9485 11.9859 20.98 12.6861 20.3811L19.7484 13.331C21.152 11.9277 21.152 9.65289 19.7468 8.24983C18.3857 6.89062 16.2051 6.84815 14.7927 8.12241L14.6586 8.24983L14.6485 8.26126L7.02369 15.8749C6.78951 16.1088 6.40982 16.1088 6.17564 15.8749C5.96275 15.6624 5.94339 15.3297 6.11757 15.0953L6.17564 15.0282L13.8105 7.40301L13.8118 7.40336Z" fill="#F2F2F2"></path>
</svg>