<svg width="28" height="28" viewBox="0 0 28 28" fill="none" xmlns="http://www.w3.org/2000/svg">
<path d="M9.91667 10.5C9.60167 10.5 9.33333 10.2534 9.33333 9.93844V9.89567C9.33333 9.59 9.57056 9.33489 9.87622 9.33333H9.91667C14.749 9.33333 18.6667 13.251 18.6667 18.0833V18.1238C18.664 18.2703 18.6033 18.4098 18.4978 18.5116C18.3924 18.6134 18.2509 18.6692 18.1043 18.6667H18.0616C17.7466 18.6667 17.5 18.3983 17.5 18.0833C17.5 13.895 14.105 10.5 9.91667 10.5ZM15.0064 18.6667C15.302 18.6667 15.5517 18.4434 15.5548 18.1487L15.5556 18.0833C15.5556 17.3373 15.4076 16.5987 15.1202 15.9102C14.8327 15.2218 14.4115 14.5972 13.8809 14.0728C13.3504 13.5483 12.721 13.1343 12.0293 12.8548C11.3376 12.5753 10.5973 12.4358 9.85133 12.4444C9.55656 12.4483 9.33333 12.6988 9.33333 12.9936V13.0636C9.33333 13.3739 9.60633 13.6111 9.91667 13.6111C11.1028 13.6111 12.2403 14.0823 13.079 14.921C13.9177 15.7597 14.3889 16.8972 14.3889 18.0833C14.3889 18.3937 14.6261 18.6667 14.9364 18.6667H15.0064ZM11.6667 17.5C11.6667 17.8094 11.5438 18.1062 11.325 18.325C11.1062 18.5437 10.8094 18.6667 10.5 18.6667C10.1906 18.6667 9.89383 18.5437 9.67504 18.325C9.45625 18.1062 9.33333 17.8094 9.33333 17.5C9.33333 17.1906 9.45625 16.8938 9.67504 16.675C9.89383 16.4562 10.1906 16.3333 10.5 16.3333C10.8094 16.3333 11.1062 16.4562 11.325 16.675C11.5438 16.8938 11.6667 17.1906 11.6667 17.5ZM9.52778 7C8.85737 7 8.21442 7.26632 7.74037 7.74037C7.26632 8.21442 7 8.85737 7 9.52778V18.4722C7 19.1426 7.26632 19.7856 7.74037 20.2596C8.21442 20.7337 8.85737 21 9.52778 21H18.4722C19.1426 21 19.7856 20.7337 20.2596 20.2596C20.7337 19.7856 21 19.1426 21 18.4722V9.52778C21 8.85737 20.7337 8.21442 20.2596 7.74037C19.7856 7.26632 19.1426 7 18.4722 7H9.52778ZM8.16667 9.52778C8.16667 8.77644 8.77644 8.16667 9.52778 8.16667H18.4722C19.2236 8.16667 19.8333 8.77644 19.8333 9.52778V18.4722C19.8333 18.8332 19.6899 19.1794 19.4347 19.4347C19.1794 19.6899 18.8332 19.8333 18.4722 19.8333H9.52778C9.16679 19.8333 8.82058 19.6899 8.56533 19.4347C8.31007 19.1794 8.16667 18.8332 8.16667 18.4722V9.52778Z" fill="#F2F2F2"></path>
</svg>