<svg width="28" height="28" viewBox="0 0 28 28" fill="none" xmlns="http://www.w3.org/2000/svg">
<path d="M9.38636 7H18.6136C19.9316 7 21 8.06841 21 9.38636V18.6136C21 19.9316 19.9316 21 18.6136 21H9.38636C8.06841 21 7 19.9316 7 18.6136V9.38636C7 8.06841 8.06841 7 9.38636 7ZM7.95455 11.1364V18.6136C7.95455 19.4044 8.59559 20.0455 9.38636 20.0455H18.6136C19.4044 20.0455 20.0455 19.4044 20.0455 18.6136V11.1364H7.95455ZM20.0455 10.1818V9.38636C20.0455 8.59559 19.4044 7.95455 18.6136 7.95455H9.38636C8.59559 7.95455 7.95455 8.59559 7.95455 9.38636V10.1818H20.0455Z" fill="#F2F2F2"></path>
</svg>