<svg width="28" height="28" viewBox="0 0 28 28" fill="none" xmlns="http://www.w3.org/2000/svg">
<path d="M19.4996 7C20.8806 7 22 8.2371 22 9.76314V18.2369C22 19.7628 20.8806 21 19.4996 21H8.50036C7.11945 21 6 19.7628 6 18.2369V9.76314C6 8.2371 7.11945 7 8.50036 7H19.4996ZM20.9999 9.76314C20.9999 8.84752 20.3282 8.10526 19.4996 8.10526H17.3353V19.8947H19.4996C20.3282 19.8947 20.9999 19.1525 20.9999 18.2369V9.76314ZM16.3351 19.8947V8.10526H8.50036C7.67181 8.10526 7.00014 8.84752 7.00014 9.76314V18.2369C7.00014 19.1525 7.67181 19.8947 8.50036 19.8947H16.3351Z" fill="#F2F2F2"></path>
</svg>