<svg width="28" height="28" viewBox="0 0 28 28" fill="none" xmlns="http://www.w3.org/2000/svg">
<path d="M14.4872 13.5096V7.4884C14.4872 7.21881 14.2684 7 13.9988 7C13.7291 7 13.5103 7.21881 13.5103 7.4884V13.5096H7.48846C7.21883 13.5096 7 13.7284 7 13.998C7 14.2676 7.21883 14.4864 7.48846 14.4864H13.5103V20.5116C13.5103 20.7812 13.7291 21 13.9988 21C14.2684 21 14.4872 20.7812 14.4872 20.5116V14.4864L20.5115 14.4884C20.7812 14.4884 21 14.2696 21 14C21 13.7304 20.7812 13.5116 20.5115 13.5116L14.4872 13.5096Z" fill="#F2F2F2"></path>
</svg>