<svg width="28" height="28" viewBox="0 0 28 28" fill="none" xmlns="http://www.w3.org/2000/svg">
<path d="M16.2032 12.4444C16.976 12.4444 17.6032 13.0542 17.6032 13.8056V17.4992C17.6032 18.4277 17.2238 19.3181 16.5486 19.9746C15.8733 20.6312 14.9574 21 14.0024 21C13.0474 21 12.1315 20.6312 11.4563 19.9746C10.781 19.3181 10.4016 18.4277 10.4016 17.4992V13.8056C10.4016 13.0542 11.028 12.4444 11.8016 12.4444H16.2032ZM16.2032 13.6111H11.8016C11.7486 13.6111 11.6977 13.6316 11.6602 13.6681C11.6227 13.7045 11.6016 13.754 11.6016 13.8056V17.4992C11.6016 18.1183 11.8545 18.712 12.3048 19.1497C12.755 19.5874 13.3657 19.8333 14.0024 19.8333C14.6391 19.8333 15.2498 19.5874 15.7 19.1497C16.1503 18.712 16.4032 18.1183 16.4032 17.4992V13.8056C16.4032 13.754 16.3821 13.7045 16.3446 13.6681C16.3071 13.6316 16.2562 13.6111 16.2032 13.6111ZM7.4 12.4444H10.1048C9.82256 12.7758 9.65019 13.1826 9.6104 13.6111H7.4C7.34696 13.6111 7.29609 13.6316 7.25858 13.6681C7.22107 13.7045 7.2 13.754 7.2 13.8056V16.3326C7.19995 16.6265 7.2684 16.9166 7.40022 17.1811C7.53203 17.4456 7.72378 17.6776 7.96107 17.8597C8.19835 18.0418 8.47499 18.1693 8.77021 18.2325C9.06544 18.2958 9.37156 18.2932 9.6656 18.2249C9.7336 18.6169 9.8576 18.991 10.028 19.3387C9.55382 19.462 9.05683 19.4776 8.57544 19.3844C8.09404 19.2912 7.64116 19.0915 7.2518 18.801C6.86244 18.5104 6.54703 18.1366 6.32997 17.7086C6.11291 17.2806 6.00001 16.8098 6 16.3326V13.8056C6 13.0542 6.6272 12.4444 7.4 12.4444ZM17.9 12.4444H20.6C21.3728 12.4444 22 13.0542 22 13.8056V16.3333C22.0001 16.8102 21.8874 17.2808 21.6707 17.7086C21.454 18.1364 21.139 18.5101 20.7501 18.8007C20.3611 19.0914 19.9087 19.2912 19.4277 19.3847C18.9467 19.4782 18.45 19.463 17.976 19.3402C18.1472 18.9918 18.2712 18.6177 18.34 18.2257C18.6337 18.2931 18.9392 18.2951 19.2338 18.2315C19.5284 18.1679 19.8043 18.0403 20.041 17.8582C20.2776 17.6762 20.4688 17.4444 20.6003 17.1804C20.7317 16.9163 20.8 16.6267 20.8 16.3333V13.8056C20.8 13.754 20.7789 13.7045 20.7414 13.6681C20.7039 13.6316 20.653 13.6111 20.6 13.6111H18.3944C18.3546 13.1826 18.1822 12.7758 17.9 12.4444ZM14 7C14.6365 7 15.247 7.24583 15.6971 7.68342C16.1471 8.121 16.4 8.71449 16.4 9.33333C16.4 9.95217 16.1471 10.5457 15.6971 10.9832C15.247 11.4208 14.6365 11.6667 14 11.6667C13.3635 11.6667 12.753 11.4208 12.3029 10.9832C11.8529 10.5457 11.6 9.95217 11.6 9.33333C11.6 8.71449 11.8529 8.121 12.3029 7.68342C12.753 7.24583 13.3635 7 14 7ZM19.2 7.77778C19.7304 7.77778 20.2391 7.98264 20.6142 8.34729C20.9893 8.71195 21.2 9.20652 21.2 9.72222C21.2 10.2379 20.9893 10.7325 20.6142 11.0972C20.2391 11.4618 19.7304 11.6667 19.2 11.6667C18.6696 11.6667 18.1609 11.4618 17.7858 11.0972C17.4107 10.7325 17.2 10.2379 17.2 9.72222C17.2 9.20652 17.4107 8.71195 17.7858 8.34729C18.1609 7.98264 18.6696 7.77778 19.2 7.77778ZM8.8 7.77778C9.33043 7.77778 9.83914 7.98264 10.2142 8.34729C10.5893 8.71195 10.8 9.20652 10.8 9.72222C10.8 10.2379 10.5893 10.7325 10.2142 11.0972C9.83914 11.4618 9.33043 11.6667 8.8 11.6667C8.26957 11.6667 7.76086 11.4618 7.38579 11.0972C7.01071 10.7325 6.8 10.2379 6.8 9.72222C6.8 9.20652 7.01071 8.71195 7.38579 8.34729C7.76086 7.98264 8.26957 7.77778 8.8 7.77778ZM14 8.16667C13.6817 8.16667 13.3765 8.28958 13.1515 8.50838C12.9264 8.72717 12.8 9.02391 12.8 9.33333C12.8 9.64275 12.9264 9.9395 13.1515 10.1583C13.3765 10.3771 13.6817 10.5 14 10.5C14.3183 10.5 14.6235 10.3771 14.8485 10.1583C15.0736 9.9395 15.2 9.64275 15.2 9.33333C15.2 9.02391 15.0736 8.72717 14.8485 8.50838C14.6235 8.28958 14.3183 8.16667 14 8.16667ZM19.2 8.94444C18.9878 8.94444 18.7843 9.02639 18.6343 9.17225C18.4843 9.31811 18.4 9.51594 18.4 9.72222C18.4 9.9285 18.4843 10.1263 18.6343 10.2722C18.7843 10.4181 18.9878 10.5 19.2 10.5C19.4122 10.5 19.6157 10.4181 19.7657 10.2722C19.9157 10.1263 20 9.9285 20 9.72222C20 9.51594 19.9157 9.31811 19.7657 9.17225C19.6157 9.02639 19.4122 8.94444 19.2 8.94444ZM8.8 8.94444C8.58783 8.94444 8.38434 9.02639 8.23431 9.17225C8.08429 9.31811 8 9.51594 8 9.72222C8 9.9285 8.08429 10.1263 8.23431 10.2722C8.38434 10.4181 8.58783 10.5 8.8 10.5C9.01217 10.5 9.21566 10.4181 9.36569 10.2722C9.51571 10.1263 9.6 9.9285 9.6 9.72222C9.6 9.51594 9.51571 9.31811 9.36569 9.17225C9.21566 9.02639 9.01217 8.94444 8.8 8.94444Z" fill="#F2F2F2"></path>
</svg>