<svg width="28" height="28" viewBox="0 0 28 28" fill="none" xmlns="http://www.w3.org/2000/svg">
<path d="M18.4013 12.6755C18.4657 12.6171 18.5174 12.5468 18.5533 12.4686C18.5892 12.3904 18.6085 12.3059 18.61 12.2203C18.6116 12.1347 18.5954 12.0497 18.5624 11.9703C18.5294 11.891 18.4802 11.8189 18.4179 11.7583C18.3556 11.6978 18.2814 11.6501 18.1996 11.618C18.1179 11.5859 18.0304 11.5702 17.9423 11.5717C17.8542 11.5732 17.7673 11.5919 17.6868 11.6268C17.6063 11.6616 17.5338 11.7119 17.4738 11.7745L13.125 15.999L11.4012 14.3245C11.2768 14.2119 11.1123 14.1506 10.9423 14.1535C10.7723 14.1564 10.6101 14.2233 10.4898 14.3401C10.3696 14.4569 10.3007 14.6145 10.2977 14.7797C10.2947 14.9448 10.3578 15.1047 10.4737 15.2255L12.6613 17.3505C12.7843 17.4699 12.9511 17.5369 13.125 17.5369C13.2989 17.5369 13.4657 17.4699 13.5887 17.3505L18.4013 12.6755ZM17.4948 6.7714C17.4581 6.2899 17.2353 5.83968 16.8711 5.51112C16.5069 5.18256 16.0283 4.99997 15.5312 5H12.4688C11.9845 5.00001 11.5172 5.17341 11.1563 5.48703C10.7953 5.80065 10.5661 6.23249 10.5122 6.7H8.96875C8.44661 6.7 7.94585 6.9015 7.57663 7.26016C7.20742 7.61882 7 8.10527 7 8.6125V20.0875C7 20.5947 7.20742 21.0812 7.57663 21.4398C7.94585 21.7985 8.44661 22 8.96875 22H19.0312C19.2898 22 19.5458 21.9505 19.7847 21.8544C20.0235 21.7583 20.2406 21.6174 20.4234 21.4398C20.6062 21.2623 20.7512 21.0514 20.8501 20.8194C20.9491 20.5873 21 20.3387 21 20.0875V8.6125C21 8.36135 20.9491 8.11265 20.8501 7.88062C20.7512 7.64858 20.6062 7.43775 20.4234 7.26016C20.2406 7.08257 20.0235 6.94169 19.7847 6.84558C19.5458 6.74947 19.2898 6.7 19.0312 6.7H17.4878L17.4948 6.7714ZM17.4948 6.7816L17.5 6.9125C17.5 6.8683 17.4974 6.82495 17.4948 6.7816ZM12.4688 8.825H15.5312C16.2137 8.825 16.8149 8.48755 17.1684 7.975H19.0312C19.2053 7.975 19.3722 8.04217 19.4953 8.16172C19.6184 8.28127 19.6875 8.44342 19.6875 8.6125V20.0875C19.6875 20.2566 19.6184 20.4187 19.4953 20.5383C19.3722 20.6578 19.2053 20.725 19.0312 20.725H8.96875C8.7947 20.725 8.62778 20.6578 8.50471 20.5383C8.38164 20.4187 8.3125 20.2566 8.3125 20.0875V8.6125C8.3125 8.44342 8.38164 8.28127 8.50471 8.16172C8.62778 8.04217 8.7947 7.975 8.96875 7.975H10.8316C11.1851 8.48755 11.7863 8.825 12.4688 8.825ZM12.4688 6.275H15.5312C15.7053 6.275 15.8722 6.34216 15.9953 6.46172C16.1184 6.58127 16.1875 6.74342 16.1875 6.9125C16.1875 7.08158 16.1184 7.24373 15.9953 7.36328C15.8722 7.48284 15.7053 7.55 15.5312 7.55H12.4688C12.2947 7.55 12.1278 7.48284 12.0047 7.36328C11.8816 7.24373 11.8125 7.08158 11.8125 6.9125C11.8125 6.74342 11.8816 6.58127 12.0047 6.46172C12.1278 6.34216 12.2947 6.275 12.4688 6.275Z" fill="#F2F2F2"></path>
</svg>