<svg width="28" height="28" viewBox="0 0 28 28" fill="none" xmlns="http://www.w3.org/2000/svg">
<path d="M14 7.09091C12.4012 7.09091 10.9296 7.63351 9.7587 8.54545H10.9091C11.2103 8.54545 11.4545 8.78967 11.4545 9.09091C11.4545 9.39215 11.2103 9.63636 10.9091 9.63636H8.36364C8.06239 9.63636 7.81818 9.39215 7.81818 9.09091V6.54545C7.81818 6.24421 8.06239 6 8.36364 6C8.66488 6 8.90909 6.24421 8.90909 6.54545V7.82865C10.292 6.68671 12.066 6 14 6C18.4183 6 22 9.58172 22 14C22 18.4183 18.4183 22 14 22C9.58172 22 6 18.4183 6 14C6 13.5916 6.03144 13.3772 6.08372 13.0207L6.08503 13.0118C6.12873 12.7137 6.40579 12.5075 6.70385 12.5512C7.00191 12.5949 7.2081 12.872 7.16439 13.17L7.16416 13.1716C7.11296 13.5208 7.09091 13.6712 7.09091 14C7.09091 17.8158 10.1842 20.9091 14 20.9091C17.8158 20.9091 20.9091 17.8158 20.9091 14C20.9091 10.1842 17.8158 7.09091 14 7.09091ZM14.3636 9.45455C14.3636 9.1533 14.1194 8.90909 13.8182 8.90909C13.5169 8.90909 13.2727 9.1533 13.2727 9.45455V14.1818C13.2727 14.4831 13.5169 14.7273 13.8182 14.7273H16C16.3012 14.7273 16.5455 14.4831 16.5455 14.1818C16.5455 13.8806 16.3012 13.6364 16 13.6364H14.3636V9.45455Z" fill="#F2F2F2"></path>
</svg>