<svg width="28" height="28" viewBox="0 0 28 28" fill="none" xmlns="http://www.w3.org/2000/svg">
<path d="M11.544 6.16727C11.7673 6.39038 11.7673 6.75218 11.5442 6.97539L7.9499 10.5714H14C17.3514 10.5714 20.3921 12.4456 21.9272 15.1917C22.0813 15.4672 21.9828 15.8153 21.7073 15.9693C21.4318 16.1233 21.0837 16.0248 20.9297 15.7494C19.5931 13.3583 16.9303 11.7143 14 11.7143H7.95113L11.5442 15.309C11.7673 15.5322 11.7673 15.8941 11.544 16.1171C11.3208 16.3403 10.959 16.3402 10.7359 16.117L6.18347 11.5624C6.07064 11.458 6 11.3087 6 11.1429C6 11.1428 6 11.143 6 11.1429C5.99992 10.9966 6.05568 10.8499 6.16727 10.7383L10.7359 6.16746C10.959 5.94425 11.3208 5.94417 11.544 6.16727ZM11.7143 19.7143C11.7143 18.4519 12.7376 17.4286 14 17.4286C15.2623 17.4286 16.2857 18.4519 16.2857 19.7143C16.2857 20.9767 15.2623 22 14 22C12.7376 22 11.7143 20.9767 11.7143 19.7143ZM14 18.5714C13.3688 18.5714 12.8571 19.0831 12.8571 19.7143C12.8571 20.3455 13.3688 20.8571 14 20.8571C14.6311 20.8571 15.1428 20.3455 15.1428 19.7143C15.1428 19.0831 14.6311 18.5714 14 18.5714Z" fill="#F2F2F2"></path>
</svg>