<svg width="28" height="28" viewBox="0 0 28 28" fill="none" xmlns="http://www.w3.org/2000/svg">
<path d="M7 9.79836C7 9.32097 7.20742 8.86314 7.57663 8.52558C7.94585 8.18802 8.44661 7.99838 8.96875 7.99838H16.8438C17.3659 7.99838 17.8667 8.18802 18.2359 8.52558C18.6051 8.86314 18.8125 9.32097 18.8125 9.79836V21.3998C18.8124 21.5053 18.782 21.6089 18.7242 21.7001C18.6664 21.7914 18.5834 21.8671 18.4834 21.9197C18.3834 21.9722 18.27 21.9998 18.1547 21.9995C18.0393 21.9993 17.9261 21.9712 17.8264 21.9182L12.9062 19.2943L7.987 21.9182C7.88727 21.9714 7.77395 21.9996 7.65848 22C7.54301 22.0004 7.42948 21.9729 7.32936 21.9203C7.22923 21.8677 7.14606 21.7919 7.08823 21.7005C7.0304 21.6091 6.99997 21.5054 7 21.3998V9.79836ZM8.96875 9.19836C8.7947 9.19836 8.62778 9.26158 8.50471 9.3741C8.38164 9.48662 8.3125 9.63923 8.3125 9.79836V20.355L12.5764 18.0815C12.6767 18.0281 12.7906 17.9999 12.9067 17.9999C13.0227 17.9999 13.1367 18.0281 13.237 18.0815L17.5009 20.355V9.79836C17.5009 9.63923 17.4317 9.48662 17.3087 9.3741C17.1856 9.26158 17.0187 9.19836 16.8446 9.19836H8.96875ZM16.8438 6C17.9461 6 19.0032 6.40035 19.7827 7.11298C20.5621 7.82561 21 8.79215 21 9.79996V19.2983C21 19.4574 20.9309 19.61 20.8078 19.7225C20.6847 19.835 20.5178 19.8982 20.3438 19.8982C20.1697 19.8982 20.0028 19.835 19.8797 19.7225C19.7566 19.61 19.6875 19.4574 19.6875 19.2983V9.80076C19.6875 9.1112 19.3879 8.44989 18.8546 7.9623C18.3213 7.47471 17.598 7.20079 16.8438 7.20079H9.30737C9.30737 7.20079 9.40625 6.75439 10.0048 6.3352C10.5 6 11.0268 6 11.0268 6H16.8438Z" fill="#F2F2F2"></path>
</svg>