<svg width="28" height="28" viewBox="0 0 28 28" fill="none" xmlns="http://www.w3.org/2000/svg">
<path d="M17.9698 8.9106C18.0741 8.54774 17.9039 8.15592 17.5894 8.03545C17.275 7.91498 16.9355 8.11149 16.8311 8.47435C16.7128 8.88556 16.588 9.43428 16.4955 9.87043C15.9067 9.89368 15.3393 9.88709 14.8423 9.84787C14.5118 9.82179 14.2255 10.1099 14.2029 10.4913C14.1803 10.8728 14.4299 11.2031 14.7605 11.2292C15.2109 11.2648 15.7125 11.2757 16.2356 11.2636C16.1205 11.9704 16.0425 12.6012 15.9954 13.1686C15.0236 13.7616 14.3469 14.5574 13.965 15.3954C13.4746 16.4714 13.4366 17.7551 14.1292 18.5733C14.5864 19.1127 15.2556 19.1643 15.8323 19.0214C16.1567 18.9411 16.4926 18.7922 16.8243 18.5837C16.8291 18.5982 16.8338 18.6125 16.8384 18.6266C16.9543 18.9847 17.2998 19.1668 17.6102 19.0331C17.9206 18.8994 18.0783 18.5006 17.9625 18.1424C17.9172 18.0024 17.8715 17.8735 17.8262 17.7512C18.6447 16.8874 19.3576 15.6204 19.6541 14.0159C20.164 14.3039 20.5093 14.7871 20.6762 15.3074C20.858 15.8739 20.8465 16.5188 20.5985 17.1099C20.3525 17.6964 19.8527 18.277 18.9867 18.6614C18.6775 18.7986 18.5232 19.1991 18.642 19.556C18.761 19.9129 19.108 20.0909 19.4172 19.9537C20.5263 19.4616 21.2814 18.6594 21.6784 17.7132C22.0733 16.7718 22.0927 15.7347 21.8013 14.8266C21.4707 13.7966 20.7611 12.9709 19.7983 12.5894C19.7997 12.5216 19.8004 12.4534 19.8004 12.3847C19.8004 12.0023 19.5318 11.6924 19.2006 11.6924C18.8764 11.6924 18.6123 11.9891 18.6011 12.3601C18.1812 12.3563 17.7332 12.4254 17.2636 12.5796C17.3141 12.1591 17.3817 11.6993 17.4691 11.195C18.4164 11.1125 19.3596 10.9619 20.1376 10.751C20.4601 10.6635 20.6601 10.2909 20.5844 9.9187C20.5085 9.54649 20.1856 9.31564 19.8631 9.40308C19.2489 9.56962 18.5116 9.69649 17.7532 9.77798C17.822 9.47355 17.8983 9.15909 17.9698 8.9106ZM15.0268 16.0399C15.2078 15.6428 15.5066 15.2218 15.9434 14.8402C15.957 15.2935 15.9958 15.6943 16.0528 16.0559C16.1282 16.5347 16.2415 16.9548 16.3617 17.3226C16.1175 17.4807 15.8565 17.5993 15.5805 17.6676C15.1927 17.7637 15.0308 17.6569 14.9867 17.605C14.7957 17.3793 14.672 16.8184 15.0268 16.0399ZM18.4773 13.7438C18.3102 14.6361 17.9171 15.6103 17.3467 16.3728C17.3045 16.2032 17.2662 16.0179 17.2332 15.8082C17.1619 15.3562 17.1214 14.8003 17.1438 14.0857C17.2314 14.0469 17.3217 14.0096 17.4149 13.9741C17.8 13.8274 18.1546 13.7555 18.4773 13.7438ZM10.7708 9.4123C8.97946 8.81084 7.56899 9.55181 7.111 9.84347C6.82092 10.0282 6.71553 10.4493 6.8756 10.7841C7.03566 11.1188 7.40056 11.2404 7.69064 11.0557C8.01447 10.8495 9.07935 10.2867 10.435 10.7415C11.0533 10.9511 11.3133 11.3315 11.4463 11.7163C11.5523 12.0227 11.5856 12.354 11.5961 12.6783C11.3807 12.6089 11.1317 12.5398 10.8585 12.4838C9.95267 12.298 8.71291 12.2414 7.56116 12.878C6.29242 13.5794 5.85714 15.0161 6.03984 16.2906C6.21937 17.5429 7.01278 18.752 8.27954 19.015C9.42292 19.2525 10.5234 18.7788 11.2848 18.3122C11.3957 18.2443 11.5013 18.1753 11.6008 18.107V18.3845C11.6008 18.7668 11.8694 19.0768 12.2007 19.0768C12.532 19.0768 12.8006 18.7668 12.8006 18.3845V13.0403C12.8008 12.6212 12.8012 11.8989 12.5607 11.2032C12.2961 10.4378 11.7574 9.74633 10.7721 9.41274L10.7708 9.4123ZM10.6486 13.847C11.0352 13.9263 11.3666 14.037 11.6008 14.1279V16.4411C11.575 16.4637 11.5469 16.4879 11.5167 16.5134C11.3241 16.676 11.0494 16.8888 10.7221 17.0894C10.0496 17.5015 9.24263 17.8082 8.49204 17.6523C7.81667 17.5121 7.33657 16.8532 7.22351 16.0646C7.11362 15.298 7.36666 14.5208 8.07946 14.1267C8.90924 13.6681 9.85967 13.6852 10.6486 13.847Z" fill="#F2F2F2"></path>
</svg>