<svg width="28" height="28" viewBox="0 0 28 28" fill="none" xmlns="http://www.w3.org/2000/svg">
<path d="M9.38636 7C8.06841 7 7 8.06841 7 9.38636V18.6136C7 19.9316 8.06841 21 9.38636 21H14.8002C15.433 21 16.04 20.7486 16.4875 20.301L20.3011 16.4875C20.7486 16.04 21 15.433 21 14.8002V9.38636C21 8.06841 19.9316 7 18.6136 7H9.38636ZM7.95455 9.38636C7.95455 8.59559 8.59559 7.95455 9.38636 7.95455H18.6136C19.4044 7.95455 20.0455 8.59559 20.0455 9.38636V14.6364H17.0227C15.7048 14.6364 14.6364 15.7048 14.6364 17.0227V20.0455H9.38636C8.59559 20.0455 7.95455 19.4044 7.95455 18.6136V9.38636ZM15.5909 19.8073V17.0227C15.5909 16.232 16.232 15.5909 17.0227 15.5909H19.8073C19.7548 15.6701 19.6942 15.7444 19.6261 15.8126L15.8126 19.6261C15.7444 19.6942 15.6701 19.7548 15.5909 19.8073Z" fill="#F2F2F2"></path>
</svg>