<svg width="28" height="28" viewBox="0 0 28 28" fill="none" xmlns="http://www.w3.org/2000/svg">
<path d="M7.87884 9.71021C7.87884 8.85885 8.39553 8.16868 9.03289 8.16868C9.43323 8.16868 9.78623 8.44048 9.99386 8.85619C10.1279 9.12465 10.3996 9.19708 10.6005 9.01798C10.8015 8.83887 10.8558 8.47605 10.7217 8.20759C10.3587 7.48079 9.7379 7 9.03289 7C7.91232 7 7.00392 8.21341 7.00392 9.71021C7.00392 11.1974 7.90072 12.4049 9.01138 12.4203C9.03687 12.4264 9.06313 12.4297 9.08996 12.4297H18.2307C18.4723 12.4297 18.6682 12.1681 18.6682 11.8454C18.6682 11.5226 18.4723 11.261 18.2307 11.261H9.11085C9.08555 11.2549 9.0595 11.2518 9.03289 11.2518C8.39553 11.2518 7.87884 10.5616 7.87884 9.71021ZM12.6883 8.5341C12.4467 8.5341 12.2508 8.79572 12.2508 9.11844C12.2508 9.44116 12.4467 9.70277 12.6883 9.70277H20.5625C20.8041 9.70277 21 9.44116 21 9.11844C21 8.79572 20.8041 8.5341 20.5625 8.5341H12.6883ZM9.77192 14.1827C9.53032 14.1827 9.33446 14.4444 9.33446 14.7671C9.33446 15.0898 9.53032 15.3514 9.77192 15.3514H20.5625C20.8041 15.3514 21 15.0898 21 14.7671C21 14.4444 20.8041 14.1827 20.5625 14.1827H9.77192ZM7 17.6888C7 17.366 7.19586 17.1044 7.43746 17.1044H18.2281C18.4697 17.1044 18.6656 17.366 18.6656 17.6888C18.6656 18.0115 18.4697 18.2731 18.2281 18.2731H7.43746C7.19586 18.2731 7 18.0115 7 17.6888ZM9.76921 19.8313C9.52761 19.8313 9.33176 20.093 9.33176 20.4157C9.33176 20.7384 9.52761 21 9.76921 21H20.5599C20.8015 21 20.9973 20.7384 20.9973 20.4157C20.9973 20.093 20.8015 19.8313 20.5599 19.8313H9.76921Z" fill="#F2F2F2"></path>
</svg>