<svg width="28" height="28" viewBox="0 0 28 28" fill="none" xmlns="http://www.w3.org/2000/svg">
<path d="M17.7111 9.22727C16.6865 8.42932 15.3989 7.95455 14 7.95455C10.6612 7.95455 7.95455 10.6612 7.95455 14C7.95455 17.3388 10.6612 20.0455 14 20.0455C17.3388 20.0455 20.0455 17.3388 20.0455 14C20.0455 13.7123 20.0262 13.5807 19.9814 13.2752L19.9812 13.2738C19.9429 13.013 20.1233 12.7705 20.3841 12.7323C20.6449 12.6941 20.8874 12.8745 20.9256 13.1353L20.9268 13.1431C20.9725 13.455 21 13.6426 21 14C21 17.866 17.866 21 14 21C10.134 21 7 17.866 7 14C7 10.134 10.134 7 14 7C15.6922 7 17.2445 7.60087 18.4545 8.60007V7.47727C18.4545 7.21368 18.6682 7 18.9318 7C19.1954 7 19.4091 7.21368 19.4091 7.47727V9.70455C19.4091 9.96813 19.1954 10.1818 18.9318 10.1818H16.7045C16.441 10.1818 16.2273 9.96813 16.2273 9.70455C16.2273 9.44096 16.441 9.22727 16.7045 9.22727H17.7111Z" fill="#F2F2F2"></path>
</svg>