<svg width="28" height="28" viewBox="0 0 28 28" fill="none" xmlns="http://www.w3.org/2000/svg">
<path d="M14.7819 16.0868L18.6253 19.7759C19.1811 20.3094 20 19.8302 20 18.9715V9.02851C20 8.16976 19.181 7.69056 18.6252 8.22412L14.7819 11.9139V9.02851C14.7819 8.16976 13.9629 7.69056 13.4071 8.22412L8.37872 13.0516C7.87373 13.5365 7.87376 14.4645 8.37879 14.9493L13.4072 19.7759C13.963 20.3094 14.7819 19.8302 14.7819 18.9715V16.0868ZM14.7819 13.1233L19.1115 8.96663C19.1256 8.95316 19.1365 8.94968 19.145 8.94877C19.1551 8.94768 19.1677 8.94994 19.1805 8.95741C19.1932 8.96488 19.2025 8.9754 19.2081 8.98569C19.2128 8.99427 19.2173 9.00682 19.2173 9.02851V18.9715C19.2173 18.9932 19.2128 19.0058 19.2081 19.0143C19.2025 19.0246 19.1932 19.0351 19.1805 19.0426C19.1677 19.05 19.1551 19.0523 19.145 19.0512C19.1365 19.0503 19.1256 19.0469 19.1115 19.0334L14.7819 14.8775V13.1233ZM13.8935 8.96663C13.9075 8.95316 13.9185 8.94968 13.9269 8.94877C13.937 8.94768 13.9496 8.94994 13.9624 8.95741C13.9751 8.96488 13.9844 8.9754 13.99 8.98569C13.9946 8.99427 13.9992 9.00682 13.9992 9.02851V18.9715C13.9992 18.9932 13.9946 19.0058 13.99 19.0143C13.9844 19.0246 13.9751 19.0351 13.9624 19.0426C13.9496 19.05 13.937 19.0523 13.9269 19.0512C13.9185 19.0503 13.9075 19.0469 13.8935 19.0334L8.86504 14.2067C8.75525 14.1014 8.75525 13.8996 8.86502 13.7942L13.8935 8.96663Z" fill="#F2F2F2"></path>
</svg>