<svg width="28" height="28" viewBox="0 0 28 28" fill="none" xmlns="http://www.w3.org/2000/svg">
<path d="M12.4445 7C15.4513 7 17.8889 9.43756 17.8889 12.4444C17.8889 13.7799 17.4081 15.003 16.6102 15.9501L20.8633 20.2034C21.0456 20.3856 21.0456 20.6811 20.8633 20.8633C20.6977 21.029 20.4384 21.0441 20.2557 20.9085L20.2034 20.8633L15.9501 16.6102C15.003 17.4081 13.7799 17.8889 12.4445 17.8889C9.43756 17.8889 7 15.4513 7 12.4444C7 9.43756 9.43756 7 12.4445 7ZM12.4445 7.93333C9.95303 7.93333 7.93333 9.95303 7.93333 12.4444C7.93333 14.9359 9.95303 16.9556 12.4445 16.9556C14.9359 16.9556 16.9556 14.9359 16.9556 12.4444C16.9556 9.95303 14.9359 7.93333 12.4445 7.93333Z" fill="#F2F2F2"></path>
</svg>