<svg width="28" height="28" viewBox="0 0 28 28" fill="none" xmlns="http://www.w3.org/2000/svg">
<path d="M14 11C12.2711 11 10.8696 12.3431 10.8696 14C10.8696 15.6569 12.2711 17 14 17C14.9383 17 15.7802 16.6044 16.3539 15.9777C16.8374 15.4497 17.1304 14.7577 17.1304 14C17.1304 13.6934 17.0824 13.3975 16.9932 13.1189C16.6005 11.892 15.4089 11 14 11ZM11.913 14C11.913 12.8954 12.8474 12 14 12C15.1526 12 16.087 12.8954 16.087 14C16.087 15.1046 15.1526 16 14 16C12.8474 16 11.913 15.1046 11.913 14ZM19.363 19.5965L18.1613 19.0909C17.8175 18.9465 17.4136 18.9676 17.0887 19.1479C16.7638 19.3282 16.5565 19.6461 16.5153 20.0043L16.3708 21.257C16.3409 21.5153 16.1454 21.7278 15.8821 21.7879C14.6444 22.0707 13.3548 22.0707 12.1171 21.7879C11.8538 21.7278 11.6582 21.5153 11.6284 21.257L11.4841 20.0062C11.4417 19.6487 11.2252 19.3317 10.9005 19.152C10.5759 18.9723 10.1817 18.9513 9.83902 19.0949L8.63701 19.6006C8.38804 19.7053 8.09734 19.6479 7.91169 19.4572C7.04678 18.5691 6.40295 17.5041 6.02867 16.3424C5.94806 16.0922 6.0412 15.8205 6.2608 15.6651L7.32326 14.9135C7.62588 14.7 7.80462 14.361 7.80462 14.0004C7.80462 13.6398 7.62588 13.3008 7.32287 13.087L6.26107 12.3367C6.04114 12.1813 5.94792 11.9092 6.02881 11.6587C6.40374 10.4982 7.04791 9.43438 7.91284 8.54739C8.09867 8.35682 8.38951 8.29957 8.63844 8.40457L9.8351 8.90932C10.1794 9.05442 10.5753 9.0325 10.9017 8.8494C11.2266 8.66839 11.4431 8.35014 11.4848 7.99192L11.6301 6.74007C11.6605 6.47865 11.8605 6.26465 12.1279 6.20754C12.7409 6.07665 13.3663 6.0071 14.0091 6C14.6363 6.00694 15.2611 6.07652 15.8733 6.20762C16.1405 6.26485 16.3404 6.47878 16.3707 6.74007L16.5162 7.99288C16.582 8.5681 17.0878 9.00378 17.6908 9.00438C17.8529 9.00463 18.0132 8.97222 18.163 8.90859L19.3599 8.40375C19.6088 8.29875 19.8996 8.356 20.0854 8.54656C20.9504 9.43356 21.5946 10.4974 21.9695 11.6579C22.0503 11.9082 21.9573 12.1801 21.7376 12.3356L20.6767 13.0865C20.3741 13.2999 20.1913 13.639 20.1913 13.9996C20.1913 14.3601 20.3741 14.6992 20.6774 14.9131L21.7392 15.6643C21.959 15.8197 22.052 16.0917 21.9712 16.342C21.5964 17.5024 20.9526 18.5661 20.0881 19.4533C19.9025 19.6438 19.6119 19.7012 19.363 19.5965ZM15.5743 19.4643C15.7379 18.9789 16.0792 18.5525 16.5658 18.2825C17.1793 17.9421 17.9329 17.9031 18.5802 18.1751L19.5152 18.5684C20.1155 17.9025 20.5804 17.1342 20.8856 16.3034L20.0588 15.7185L20.0582 15.718C19.4943 15.3199 19.1478 14.6851 19.1478 13.9996C19.1478 13.3145 19.4938 12.6797 20.0573 12.2818L20.0581 12.2811L20.884 11.6967C20.5786 10.8658 20.1135 10.0975 19.5129 9.43176L18.5859 9.8228L18.5843 9.82348C18.3022 9.94305 17.9981 10.0048 17.6897 10.0044C16.5541 10.003 15.6032 9.18284 15.479 8.10306L15.4789 8.1019L15.3659 7.12865C14.9184 7.04881 14.4645 7.00577 14.009 7.00007C13.5401 7.0059 13.0832 7.04907 12.6349 7.12881L12.5218 8.10298C12.4435 8.77511 12.0378 9.37268 11.4274 9.7132C10.8135 10.057 10.0658 10.0989 9.41474 9.82459L8.48538 9.43258C7.88486 10.0983 7.41977 10.8665 7.11441 11.6973L7.94213 12.2821C8.5121 12.6845 8.8481 13.3224 8.8481 14.0004C8.8481 14.6781 8.51229 15.3161 7.94252 15.7184L7.11416 16.3043C7.41914 17.1363 7.88417 17.9056 8.4849 18.5725L9.42081 18.1787C10.0678 17.9075 10.8109 17.9476 11.4224 18.2861C12.0341 18.6246 12.4413 19.2213 12.5209 19.8933L12.5213 19.8963L12.6339 20.8725C13.5357 21.0425 14.4634 21.0425 15.3653 20.8725L15.4781 19.8945C15.495 19.7478 15.5273 19.6036 15.5743 19.4643Z" fill="#F2F2F2"></path>
</svg>