<svg width="28" height="28" viewBox="0 0 28 28" fill="none" xmlns="http://www.w3.org/2000/svg">
<path d="M20.0808 7.15771C20.2911 6.94743 20.632 6.94743 20.8423 7.15771C21.0526 7.36799 21.0526 7.70893 20.8423 7.91921L14.7615 14L20.8423 20.0808C21.0526 20.2911 21.0526 20.632 20.8423 20.8423C20.632 21.0526 20.2911 21.0526 20.0808 20.8423L14 14.7615L7.91921 20.8423C7.70893 21.0526 7.36799 21.0526 7.15771 20.8423C6.94743 20.632 6.94743 20.2911 7.15771 20.0808L13.2385 14L7.15771 7.91921C6.94743 7.70893 6.94743 7.36799 7.15771 7.15771C7.36799 6.94743 7.70893 6.94743 7.91921 7.15771L14 13.2385L20.0808 7.15771Z" fill="#F2F2F2"></path>
</svg>