<svg width="28" height="28" viewBox="0 0 28 28" fill="none" xmlns="http://www.w3.org/2000/svg">
<path d="M9.49144 12.6452C9.66905 10.0468 11.6198 8 14 8C16.3802 8 18.3309 10.0468 18.5086 12.6452H18.6957C20.5206 12.6452 22 14.2916 22 16.3226C22 18.3536 20.5206 20 18.6957 20H9.30435C7.47941 20 6 18.3536 6 16.3226C6 14.2916 7.47941 12.6452 9.30435 12.6452H9.49144ZM14 9.16129C12.079 9.16129 10.5217 10.8944 10.5217 13.0323V13.2258C10.5217 13.5465 10.2881 13.8065 10 13.8065H9.30435C8.0557 13.8065 7.04348 14.933 7.04348 16.3226C7.04348 17.7122 8.0557 18.8387 9.30435 18.8387H18.6957C19.9443 18.8387 20.9565 17.7122 20.9565 16.3226C20.9565 14.933 19.9443 13.8065 18.6957 13.8065H18C17.7119 13.8065 17.4783 13.5465 17.4783 13.2258V13.0323C17.4783 10.8944 15.921 9.16129 14 9.16129Z" fill="#F2F2F2"></path>
</svg>