<svg width="28" height="28" viewBox="0 0 28 28" fill="none" xmlns="http://www.w3.org/2000/svg">
<path d="M13.4878 21.5C13.4878 21.7761 13.7164 22 13.9985 22C14.2806 22 14.5092 21.7761 14.5092 21.5V6.5C14.5092 6.22386 14.2806 6 13.9985 6C13.7164 6 13.4878 6.22386 13.4878 6.5V21.5ZM7.87269 7.33333C6.83843 7.33333 6 8.15415 6 9.16667V18.8334C6 19.8459 6.83843 20.6667 7.87269 20.6667H12.8068V19.6667H7.87269C7.40257 19.6667 7.02147 19.2936 7.02147 18.8334V9.16667C7.02147 8.70643 7.40257 8.33333 7.87269 8.33333H12.8068V7.33333H7.87269ZM20.1273 19.6667H15.1902V20.6667H20.1273C21.1616 20.6667 22 19.8459 22 18.8334V9.16667C22 8.15415 21.1616 7.33333 20.1273 7.33333H15.1902V8.33333H20.1273C20.5974 8.33333 20.9785 8.70643 20.9785 9.16667V18.8334C20.9785 19.2936 20.5974 19.6667 20.1273 19.6667Z" fill="#F2F2F2"></path>
</svg>