<svg width="28" height="28" viewBox="0 0 28 28" fill="none" xmlns="http://www.w3.org/2000/svg">
<path d="M13.9904 7C15.1162 7 16.1683 7.29212 17.0608 7.80015C16.7949 8.06239 16.5892 8.37718 16.4642 8.72578C15.7467 8.3139 14.8986 8.07664 13.9904 8.07664C11.4045 8.07664 9.31776 9.99609 9.31738 12.3832V15.5482L8.27065 17.769H19.7168L18.6634 15.5489L18.6635 12.3924L18.6605 12.2307C18.6576 12.153 18.6525 12.0757 18.6453 11.9991C18.7783 12.0175 18.9144 12.027 19.0529 12.027C19.3159 12.027 19.5701 11.9927 19.8107 11.9286C19.819 12.0195 19.8249 12.1109 19.8284 12.203L19.8316 12.3832V15.3238L20.9064 17.589C20.9603 17.7024 20.988 17.8247 20.988 17.9484C20.988 18.444 20.5521 18.8457 20.0145 18.8457L16.3269 18.8467C16.3269 20.0359 15.2808 21 13.9904 21C12.7461 21 11.7289 20.1036 11.6579 18.9732L11.6535 18.8451L7.97379 18.8457C7.84034 18.8457 7.70832 18.8204 7.58593 18.7714C7.09277 18.574 6.86664 18.0455 7.08084 17.591L8.14914 15.3245V12.3831C8.1496 9.40096 10.7599 7 13.9904 7ZM15.1583 18.8451L12.8221 18.8467C12.8221 19.4413 13.3452 19.9234 13.9904 19.9234C14.5976 19.9234 15.0967 19.4964 15.1533 18.9504L15.1583 18.8451ZM17.1368 9.19446C17.2108 8.816 17.4136 8.47879 17.7018 8.22274C18.052 7.91174 18.5282 7.72048 19.0529 7.72048C20.1283 7.72048 21 8.52385 21 9.51486C21 10.2995 20.4535 10.9665 19.6922 11.2103C19.492 11.2744 19.2768 11.3092 19.0529 11.3092C18.8597 11.3092 18.6731 11.2833 18.497 11.235C17.6925 11.0145 17.1058 10.3278 17.1058 9.51486C17.1058 9.4055 17.1165 9.29842 17.1368 9.19446Z" fill="#F2F2F2"></path>
</svg>